<svg xmlns="http://www.w3.org/2000/svg" viewBox="0 0 30 30" fill="none">
  <rect x=".5" y=".5" width="29" height="29" rx="3" fill="#060E1A" stroke="#183355"/>
  <path d="M7 23V7h5.5c3 0 5 1.6 5 4.2 0 1.6-.85 2.8-2.1 3.5 1.85.65 2.85 2.05 2.85 3.95C18.25 21.5 16.2 23 13 23H7z" fill="none" stroke="#00C8F0" stroke-width="1.4"/>
  <path d="M10 13.5h2.5c1.3 0 2.1-.65 2.1-1.75S13.8 10 12.5 10H10v3.5z" fill="rgba(0,200,240,.25)"/>
  <path d="M10 20.5h3c1.5 0 2.35-.75 2.35-2S14.5 16.5 13 16.5H10v4z" fill="rgba(0,200,240,.25)"/>
  <circle cx="22" cy="9" r="1.8" fill="#00C8F0" opacity=".5"/>
</svg>
